<svg width="12" height="12" viewBox="0 0 12 12" fill="none" xmlns="http://www.w3.org/2000/svg">
<mask id="mask0_958_4923" style="mask-type:alpha" maskUnits="userSpaceOnUse" x="0" y="0" width="12" height="12">
<rect width="12" height="12" fill="#D9D9D9"/>
</mask>
<g mask="url(#mask0_958_4923)">
<path d="M3.85 8.15C3.94167 8.24167 4.05833 8.2875 4.2 8.2875C4.34167 8.2875 4.45833 8.24167 4.55 8.15L6 6.7L7.4625 8.1625C7.55417 8.25417 7.66883 8.29783 7.8065 8.2935C7.94383 8.2895 8.05833 8.24167 8.15 8.15C8.24167 8.05833 8.2875 7.94167 8.2875 7.8C8.2875 7.65833 8.24167 7.54167 8.15 7.45L6.7 6L8.1625 4.5375C8.25417 4.44583 8.29783 4.33117 8.2935 4.1935C8.2895 4.05617 8.24167 3.94167 8.15 3.85C8.05833 3.75833 7.94167 3.7125 7.8 3.7125C7.65833 3.7125 7.54167 3.75833 7.45 3.85L6 5.3L4.5375 3.8375C4.44583 3.74583 4.33133 3.702 4.194 3.706C4.05633 3.71033 3.94167 3.75833 3.85 3.85C3.75833 3.94167 3.7125 4.05833 3.7125 4.2C3.7125 4.34167 3.75833 4.45833 3.85 4.55L5.3 6L3.8375 7.4625C3.74583 7.55417 3.70217 7.66867 3.7065 7.806C3.7105 7.94367 3.75833 8.05833 3.85 8.15ZM6 11C5.30833 11 4.65833 10.8687 4.05 10.606C3.44167 10.3437 2.9125 9.9875 2.4625 9.5375C2.0125 9.0875 1.65633 8.55833 1.394 7.95C1.13133 7.34167 1 6.69167 1 6C1 5.30833 1.13133 4.65833 1.394 4.05C1.65633 3.44167 2.0125 2.9125 2.4625 2.4625C2.9125 2.0125 3.44167 1.65617 4.05 1.3935C4.65833 1.13117 5.30833 1 6 1C6.69167 1 7.34167 1.13117 7.95 1.3935C8.55833 1.65617 9.0875 2.0125 9.5375 2.4625C9.9875 2.9125 10.3437 3.44167 10.606 4.05C10.8687 4.65833 11 5.30833 11 6C11 6.69167 10.8687 7.34167 10.606 7.95C10.3437 8.55833 9.9875 9.0875 9.5375 9.5375C9.0875 9.9875 8.55833 10.3437 7.95 10.606C7.34167 10.8687 6.69167 11 6 11ZM6 10C7.10833 10 8.05217 9.6105 8.8315 8.8315C9.6105 8.05217 10 7.10833 10 6C10 4.89167 9.6105 3.94783 8.8315 3.1685C8.05217 2.3895 7.10833 2 6 2C4.89167 2 3.948 2.3895 3.169 3.1685C2.38967 3.94783 2 4.89167 2 6C2 7.10833 2.38967 8.05217 3.169 8.8315C3.948 9.6105 4.89167 10 6 10Z" fill="#FF316A"/>
</g>
</svg>
