<svg width="23" height="16" viewBox="0 0 23 16" fill="none" xmlns="http://www.w3.org/2000/svg">
<path d="M1.75 16C1.46667 16 1.22933 15.904 1.038 15.712C0.846 15.5207 0.75 15.2833 0.75 15V13.2C0.75 12.6333 0.896 12.1123 1.188 11.637C1.47933 11.1623 1.86667 10.8 2.35 10.55C3.38333 10.0333 4.43333 9.64567 5.5 9.387C6.56667 9.129 7.65 9 8.75 9C9.85 9 10.9333 9.129 12 9.387C13.0667 9.64567 14.1167 10.0333 15.15 10.55C15.6333 10.8 16.0207 11.1623 16.312 11.637C16.604 12.1123 16.75 12.6333 16.75 13.2V15C16.75 15.2833 16.654 15.5207 16.462 15.712C16.2707 15.904 16.0333 16 15.75 16H1.75ZM18.275 16C18.425 15.8833 18.5417 15.7373 18.625 15.562C18.7083 15.3873 18.75 15.1917 18.75 14.975V13C18.75 12.2667 18.546 11.5623 18.138 10.887C17.7293 10.2123 17.15 9.63333 16.4 9.15C17.25 9.25 18.05 9.42067 18.8 9.662C19.55 9.904 20.25 10.2 20.9 10.55C21.5 10.8833 21.9583 11.254 22.275 11.662C22.5917 12.0707 22.75 12.5167 22.75 13V15C22.75 15.2833 22.654 15.5207 22.462 15.712C22.2707 15.904 22.0333 16 21.75 16H18.275ZM8.75 8C7.65 8 6.70833 7.60833 5.925 6.825C5.14167 6.04167 4.75 5.1 4.75 4C4.75 2.9 5.14167 1.95833 5.925 1.175C6.70833 0.391667 7.65 0 8.75 0C9.85 0 10.7917 0.391667 11.575 1.175C12.3583 1.95833 12.75 2.9 12.75 4C12.75 5.1 12.3583 6.04167 11.575 6.825C10.7917 7.60833 9.85 8 8.75 8ZM18.75 4C18.75 5.1 18.3583 6.04167 17.575 6.825C16.7917 7.60833 15.85 8 14.75 8C14.5667 8 14.3333 7.97933 14.05 7.938C13.7667 7.896 13.5333 7.85 13.35 7.8C13.8 7.26667 14.1457 6.675 14.387 6.025C14.629 5.375 14.75 4.7 14.75 4C14.75 3.3 14.629 2.625 14.387 1.975C14.1457 1.325 13.8 0.733333 13.35 0.2C13.5833 0.116666 13.8167 0.0623335 14.05 0.0370002C14.2833 0.0123335 14.5167 0 14.75 0C15.85 0 16.7917 0.391667 17.575 1.175C18.3583 1.95833 18.75 2.9 18.75 4ZM2.75 14H14.75V13.2C14.75 13.0167 14.7043 12.85 14.613 12.7C14.521 12.55 14.4 12.4333 14.25 12.35C13.35 11.9 12.4417 11.5623 11.525 11.337C10.6083 11.1123 9.68333 11 8.75 11C7.81667 11 6.89167 11.1123 5.975 11.337C5.05833 11.5623 4.15 11.9 3.25 12.35C3.1 12.4333 2.97933 12.55 2.888 12.7C2.796 12.85 2.75 13.0167 2.75 13.2V14ZM8.75 6C9.3 6 9.771 5.804 10.163 5.412C10.5543 5.02067 10.75 4.55 10.75 4C10.75 3.45 10.5543 2.97933 10.163 2.588C9.771 2.196 9.3 2 8.75 2C8.2 2 7.72933 2.196 7.338 2.588C6.946 2.97933 6.75 3.45 6.75 4C6.75 4.55 6.946 5.02067 7.338 5.412C7.72933 5.804 8.2 6 8.75 6Z" fill="white"/>
</svg>
