<svg width="40" height="41" viewBox="0 0 40 41" fill="none" xmlns="http://www.w3.org/2000/svg">
<g clip-path="url(#clip0_935_5740)">
<path d="M8.33333 12.167H10C10.8841 12.167 11.7319 11.8158 12.357 11.1907C12.9821 10.5656 13.3333 9.71771 13.3333 8.83366C13.3333 8.39163 13.5089 7.96771 13.8215 7.65515C14.134 7.34259 14.558 7.16699 15 7.16699H25C25.442 7.16699 25.8659 7.34259 26.1785 7.65515C26.4911 7.96771 26.6667 8.39163 26.6667 8.83366C26.6667 9.71771 27.0179 10.5656 27.643 11.1907C28.2681 11.8158 29.1159 12.167 30 12.167H31.6667C32.5507 12.167 33.3986 12.5182 34.0237 13.1433C34.6488 13.7684 35 14.6163 35 15.5003V30.5003C35 31.3844 34.6488 32.2322 34.0237 32.8573C33.3986 33.4825 32.5507 33.8337 31.6667 33.8337H8.33333C7.44928 33.8337 6.60143 33.4825 5.97631 32.8573C5.35119 32.2322 5 31.3844 5 30.5003V15.5003C5 14.6163 5.35119 13.7684 5.97631 13.1433C6.60143 12.5182 7.44928 12.167 8.33333 12.167" stroke="black" stroke-width="2" stroke-linecap="round" stroke-linejoin="round"/>
<path d="M20 27.167C22.7614 27.167 25 24.9284 25 22.167C25 19.4056 22.7614 17.167 20 17.167C17.2386 17.167 15 19.4056 15 22.167C15 24.9284 17.2386 27.167 20 27.167Z" stroke="black" stroke-width="2" stroke-linecap="round" stroke-linejoin="round"/>
</g>
<defs>
<clipPath id="clip0_935_5740">
<rect width="40" height="40" fill="white" transform="translate(0 0.5)"/>
</clipPath>
</defs>
</svg>
