<svg width="34" height="34" viewBox="0 0 34 34" fill="none" xmlns="http://www.w3.org/2000/svg">
<circle cx="17" cy="17" r="17" fill="#F5F5F5"/>
<path d="M10.954 24.38L10.954 24.38L10.9801 24.3734L10.9801 24.3734L13.6081 23.7164C13.6243 23.7124 13.6404 23.7084 13.6565 23.7044C13.8753 23.65 14.0856 23.5978 14.2771 23.4894C14.4685 23.381 14.6215 23.2275 14.7807 23.0679C14.7924 23.0561 14.8042 23.0444 14.816 23.0325L22.0101 15.8385L22.0101 15.8385L22.0369 15.8117C22.3472 15.5014 22.6215 15.2272 22.8128 14.9764C23.0202 14.7046 23.1858 14.391 23.1858 14C23.1858 13.609 23.0202 13.2954 22.8128 13.0236C22.6215 12.7728 22.3472 12.4986 22.0369 12.1883L22.01 12.1615L21.8385 11.9899L21.8117 11.9631C21.5014 11.6528 21.2272 11.3785 20.9764 11.1872C20.7046 10.9798 20.391 10.8142 20 10.8142C19.609 10.8142 19.2954 10.9798 19.0236 11.1872C18.7729 11.3785 18.4986 11.6528 18.1884 11.9631L18.1615 11.9899L10.9675 19.184C10.9556 19.1958 10.9439 19.2076 10.9321 19.2193C10.7725 19.3785 10.619 19.5315 10.5106 19.7229C10.4022 19.9144 10.35 20.1247 10.2956 20.3435C10.2916 20.3596 10.2876 20.3757 10.2836 20.3919L9.62003 23.046C9.61762 23.0557 9.61518 23.0654 9.61272 23.0752C9.57411 23.2293 9.53044 23.4035 9.51593 23.5518C9.49978 23.7169 9.50127 24.0162 9.74255 24.2574C9.98383 24.4987 10.2831 24.5002 10.4482 24.4841C10.5965 24.4696 10.7707 24.4259 10.9248 24.3873C10.9346 24.3848 10.9443 24.3824 10.954 24.38Z" stroke="#33363F" stroke-width="1.2"/>
<path d="M17.5 12.5L21.5 16.5" stroke="#33336F" stroke-opacity="0.8"/>
</svg>
