<svg width="21" height="16" viewBox="0 0 21 16" fill="none" xmlns="http://www.w3.org/2000/svg">
<path d="M8.25 12H9.25C9.25 12.2833 9.346 12.5207 9.538 12.712C9.72933 12.904 9.96667 13 10.25 13C10.5333 13 10.771 12.904 10.963 12.712C11.1543 12.5207 11.25 12.2833 11.25 12H12.25C12.5333 12 12.771 11.904 12.963 11.712C13.1543 11.5207 13.25 11.2833 13.25 11V8C13.25 7.71667 13.1543 7.479 12.963 7.287C12.771 7.09567 12.5333 7 12.25 7H9.25V6H12.25C12.5333 6 12.771 5.904 12.963 5.712C13.1543 5.52067 13.25 5.28333 13.25 5C13.25 4.71667 13.1543 4.479 12.963 4.287C12.771 4.09567 12.5333 4 12.25 4H11.25C11.25 3.71667 11.1543 3.479 10.963 3.287C10.771 3.09567 10.5333 3 10.25 3C9.96667 3 9.72933 3.09567 9.538 3.287C9.346 3.479 9.25 3.71667 9.25 4H8.25C7.96667 4 7.72933 4.09567 7.538 4.287C7.346 4.479 7.25 4.71667 7.25 5V8C7.25 8.28333 7.346 8.52067 7.538 8.712C7.72933 8.904 7.96667 9 8.25 9H11.25V10H8.25C7.96667 10 7.72933 10.0957 7.538 10.287C7.346 10.479 7.25 10.7167 7.25 11C7.25 11.2833 7.346 11.5207 7.538 11.712C7.72933 11.904 7.96667 12 8.25 12ZM2.25 16C1.7 16 1.22933 15.8043 0.838 15.413C0.446 15.021 0.25 14.55 0.25 14V2C0.25 1.45 0.446 0.979333 0.838 0.588C1.22933 0.196 1.7 0 2.25 0H18.25C18.8 0 19.271 0.196 19.663 0.588C20.0543 0.979333 20.25 1.45 20.25 2V14C20.25 14.55 20.0543 15.021 19.663 15.413C19.271 15.8043 18.8 16 18.25 16H2.25ZM2.25 14H18.25V2H2.25V14Z" fill="white"/>
</svg>
