<svg width="34" height="34" viewBox="0 0 34 34" fill="none" xmlns="http://www.w3.org/2000/svg">
<circle cx="17" cy="17" r="17" fill="#DB4444"/>
<path d="M26 10.98C22.67 10.65 19.32 10.48 15.98 10.48C14 10.48 12.02 10.58 10.04 10.78L8 10.98" stroke="white" stroke-width="1.5" stroke-linecap="round" stroke-linejoin="round"/>
<path d="M13.5 9.97L13.72 8.66C13.88 7.71 14 7 15.69 7H18.31C20 7 20.13 7.75 20.28 8.67L20.5 9.97" stroke="white" stroke-width="1.5" stroke-linecap="round" stroke-linejoin="round"/>
<path d="M23.8499 14.1396L23.1999 24.2096C23.0899 25.7796 22.9999 26.9996 20.2099 26.9996H13.7899C10.9999 26.9996 10.9099 25.7796 10.7999 24.2096L10.1499 14.1396" stroke="white" stroke-width="1.5" stroke-linecap="round" stroke-linejoin="round"/>
<path d="M15.3301 21.5H18.6601" stroke="white" stroke-width="1.5" stroke-linecap="round" stroke-linejoin="round"/>
<path d="M14.5 17.5H19.5" stroke="white" stroke-width="1.5" stroke-linecap="round" stroke-linejoin="round"/>
</svg>
