<svg width="10" height="11" viewBox="0 0 10 11" fill="none" xmlns="http://www.w3.org/2000/svg">
<path d="M2.85 7.65C2.94167 7.74167 3.05833 7.7875 3.2 7.7875C3.34167 7.7875 3.45833 7.74167 3.55 7.65L5 6.2L6.4625 7.6625C6.55417 7.75417 6.66883 7.79783 6.8065 7.7935C6.94383 7.7895 7.05833 7.74167 7.15 7.65C7.24167 7.55833 7.2875 7.44167 7.2875 7.3C7.2875 7.15833 7.24167 7.04167 7.15 6.95L5.7 5.5L7.1625 4.0375C7.25417 3.94583 7.29783 3.83117 7.2935 3.6935C7.2895 3.55617 7.24167 3.44167 7.15 3.35C7.05833 3.25833 6.94167 3.2125 6.8 3.2125C6.65833 3.2125 6.54167 3.25833 6.45 3.35L5 4.8L3.5375 3.3375C3.44583 3.24583 3.33133 3.202 3.194 3.206C3.05633 3.21033 2.94167 3.25833 2.85 3.35C2.75833 3.44167 2.7125 3.55833 2.7125 3.7C2.7125 3.84167 2.75833 3.95833 2.85 4.05L4.3 5.5L2.8375 6.9625C2.74583 7.05417 2.70217 7.16867 2.7065 7.306C2.7105 7.44367 2.75833 7.55833 2.85 7.65ZM5 10.5C4.30833 10.5 3.65833 10.3687 3.05 10.106C2.44167 9.84367 1.9125 9.4875 1.4625 9.0375C1.0125 8.5875 0.656333 8.05833 0.394 7.45C0.131333 6.84167 0 6.19167 0 5.5C0 4.80833 0.131333 4.15833 0.394 3.55C0.656333 2.94167 1.0125 2.4125 1.4625 1.9625C1.9125 1.5125 2.44167 1.15617 3.05 0.8935C3.65833 0.631167 4.30833 0.5 5 0.5C5.69167 0.5 6.34167 0.631167 6.95 0.8935C7.55833 1.15617 8.0875 1.5125 8.5375 1.9625C8.9875 2.4125 9.34367 2.94167 9.606 3.55C9.86867 4.15833 10 4.80833 10 5.5C10 6.19167 9.86867 6.84167 9.606 7.45C9.34367 8.05833 8.9875 8.5875 8.5375 9.0375C8.0875 9.4875 7.55833 9.84367 6.95 10.106C6.34167 10.3687 5.69167 10.5 5 10.5Z" fill="#FF316A"/>
</svg>
