<svg width="12" height="12" viewBox="0 0 12 12" fill="none" xmlns="http://www.w3.org/2000/svg">
<path d="M6 11.5C5.06667 11.5 4.20833 11.2875 3.425 10.8625C2.64167 10.4375 2 9.86669 1.5 9.15002V10C1.5 10.1417 1.45217 10.2604 1.3565 10.356C1.2605 10.452 1.14167 10.5 1 10.5C0.858333 10.5 0.739667 10.452 0.644 10.356C0.548 10.2604 0.5 10.1417 0.5 10V8.00002C0.5 7.85836 0.548 7.73952 0.644 7.64352C0.739667 7.54786 0.858333 7.50002 1 7.50002H3C3.14167 7.50002 3.2605 7.54786 3.3565 7.64352C3.45217 7.73952 3.5 7.85836 3.5 8.00002C3.5 8.14169 3.45217 8.26035 3.3565 8.35602C3.2605 8.45202 3.14167 8.50002 3 8.50002H2.275C2.675 9.10002 3.2 9.58335 3.85 9.95002C4.5 10.3167 5.21667 10.5 6 10.5C6.91667 10.5 7.73967 10.2564 8.469 9.76902C9.198 9.28135 9.74167 8.64586 10.1 7.86252C10.15 7.75419 10.225 7.67502 10.325 7.62502C10.425 7.57502 10.5333 7.56252 10.65 7.58752C10.8 7.62919 10.9125 7.72086 10.9875 7.86252C11.0625 8.00419 11.0667 8.14586 11 8.28752C10.5667 9.24586 9.90417 10.0209 9.0125 10.6125C8.12083 11.2042 7.11667 11.5 6 11.5ZM0.9875 5.48752C0.8625 5.45419 0.7605 5.38336 0.6815 5.27502C0.602167 5.16669 0.579167 5.04169 0.6125 4.90002C0.6875 4.55002 0.793833 4.21452 0.9315 3.89352C1.06883 3.57286 1.23333 3.26669 1.425 2.97502C1.50833 2.85836 1.61883 2.78536 1.7565 2.75602C1.89383 2.72702 2.02083 2.75836 2.1375 2.85002C2.2375 2.92502 2.3 3.02702 2.325 3.15602C2.35 3.28536 2.32917 3.40419 2.2625 3.51252C2.10417 3.75419 1.96667 4.01036 1.85 4.28102C1.73333 4.55202 1.64583 4.83336 1.5875 5.12502C1.5625 5.26669 1.4895 5.37086 1.3685 5.43752C1.24783 5.50419 1.12083 5.52086 0.9875 5.48752ZM2.875 2.17502C2.775 2.07502 2.73333 1.94586 2.75 1.78752C2.76667 1.62919 2.84167 1.50419 2.975 1.41252C3.26667 1.22086 3.57283 1.05619 3.8935 0.918522C4.2145 0.781189 4.55 0.679189 4.9 0.612522C5.04167 0.587522 5.16867 0.612522 5.281 0.687522C5.39367 0.762522 5.4625 0.862522 5.4875 0.987522C5.5125 1.12919 5.49167 1.25836 5.425 1.37502C5.35833 1.49169 5.25417 1.56252 5.1125 1.58752C4.82083 1.65419 4.54167 1.73969 4.275 1.84402C4.00833 1.94802 3.75417 2.08336 3.5125 2.25002C3.4125 2.31669 3.30417 2.34369 3.1875 2.33102C3.07083 2.31869 2.96667 2.26669 2.875 2.17502ZM5.225 6.78752L4 6.22502C3.9 6.18336 3.85 6.10836 3.85 6.00002C3.85 5.89169 3.9 5.81669 4 5.77502L5.225 5.22502L5.775 4.00002C5.81667 3.90002 5.89167 3.85002 6 3.85002C6.10833 3.85002 6.18333 3.90002 6.225 4.00002L6.775 5.22502L8 5.77502C8.1 5.81669 8.15 5.89169 8.15 6.00002C8.15 6.10836 8.1 6.18336 8 6.22502L6.775 6.77502L6.225 8.00002C6.18333 8.10002 6.10833 8.15002 6 8.15002C5.89167 8.15002 5.81667 8.10002 5.775 8.00002L5.225 6.78752ZM9.1375 2.15002C9.05417 2.25002 8.95217 2.31036 8.8315 2.33102C8.7105 2.35202 8.59583 2.32919 8.4875 2.26252C8.24583 2.10419 7.98967 1.96669 7.719 1.85002C7.448 1.73336 7.16667 1.64586 6.875 1.58752C6.73333 1.56252 6.62717 1.48536 6.5565 1.35602C6.4855 1.22702 6.47083 1.09586 6.5125 0.962522C6.54583 0.837522 6.61883 0.741689 6.7315 0.675022C6.84383 0.608356 6.96667 0.587522 7.1 0.612522C7.45 0.679189 7.78533 0.781189 8.106 0.918522C8.427 1.05619 8.73333 1.22086 9.025 1.41252C9.15 1.49586 9.223 1.61036 9.244 1.75602C9.26467 1.90202 9.22917 2.03336 9.1375 2.15002ZM11.0125 5.48752C10.8792 5.52086 10.7522 5.50419 10.6315 5.43752C10.5105 5.37086 10.4375 5.26669 10.4125 5.12502C10.3542 4.83336 10.2687 4.55202 10.156 4.28102C10.0437 4.01036 9.90417 3.75419 9.7375 3.51252C9.6625 3.39586 9.6395 3.27286 9.6685 3.14352C9.69783 3.01452 9.76667 2.91252 9.875 2.83752C9.99167 2.75419 10.1167 2.72702 10.25 2.75602C10.3833 2.78536 10.4917 2.85836 10.575 2.97502C10.7667 3.26669 10.9313 3.57286 11.069 3.89352C11.2063 4.21452 11.3125 4.55002 11.3875 4.90002C11.4208 5.04169 11.398 5.16669 11.319 5.27502C11.2397 5.38336 11.1375 5.45419 11.0125 5.48752Z" fill="#FFAA04"/>
</svg>
