<svg width="28" height="29" viewBox="0 0 28 29" fill="none" xmlns="http://www.w3.org/2000/svg">
<path d="M4.6406 11.98C4.68753 11.3953 4.95298 10.8497 5.38409 10.4519C5.8152 10.0541 6.38033 9.83322 6.96693 9.83334H21.0346C21.6212 9.83322 22.1863 10.0541 22.6174 10.4519C23.0486 10.8497 23.314 11.3953 23.3609 11.98L24.2978 23.6467C24.3235 23.9677 24.2826 24.2907 24.1774 24.5951C24.0723 24.8995 23.9052 25.1789 23.6868 25.4156C23.4684 25.6524 23.2033 25.8413 22.9083 25.9705C22.6133 26.0998 22.2947 26.1666 21.9726 26.1667H6.02893C5.70684 26.1666 5.38826 26.0998 5.09324 25.9705C4.79823 25.8413 4.53316 25.6524 4.31475 25.4156C4.09633 25.1789 3.92929 24.8995 3.82413 24.5951C3.71898 24.2907 3.678 23.9677 3.70377 23.6467L4.6406 11.98V11.98Z" stroke="black" stroke-width="1.5" stroke-linecap="round" stroke-linejoin="round"/>
<path d="M18.6673 13.3333V7.50001C18.6673 6.26233 18.1757 5.07535 17.3005 4.20018C16.4253 3.32501 15.2383 2.83334 14.0007 2.83334C12.763 2.83334 11.576 3.32501 10.7008 4.20018C9.82565 5.07535 9.33398 6.26233 9.33398 7.50001V13.3333" stroke="black" stroke-width="1.5" stroke-linecap="round" stroke-linejoin="round"/>
</svg>
