<svg width="12" height="12" viewBox="0 0 12 12" fill="none" xmlns="http://www.w3.org/2000/svg">
<mask id="mask0_958_943" style="mask-type:alpha" maskUnits="userSpaceOnUse" x="0" y="0" width="12" height="12">
<rect width="12" height="12" fill="#D9D9D9"/>
</mask>
<g mask="url(#mask0_958_943)">
<path d="M5.99994 6C6.27494 6 6.51044 5.902 6.70644 5.706C6.90211 5.51033 6.99994 5.275 6.99994 5C6.99994 4.725 6.90211 4.4895 6.70644 4.2935C6.51044 4.09783 6.27494 4 5.99994 4C5.72494 4 5.48961 4.09783 5.29394 4.2935C5.09794 4.4895 4.99994 4.725 4.99994 5C4.99994 5.275 5.09794 5.51033 5.29394 5.706C5.48961 5.902 5.72494 6 5.99994 6ZM5.99994 9.675C7.01661 8.74167 7.77077 7.89367 8.26244 7.131C8.75411 6.36867 8.99994 5.69167 8.99994 5.1C8.99994 4.19167 8.71027 3.44783 8.13094 2.8685C7.55194 2.2895 6.84161 2 5.99994 2C5.15827 2 4.44777 2.2895 3.86844 2.8685C3.28944 3.44783 2.99994 4.19167 2.99994 5.1C2.99994 5.69167 3.24577 6.36867 3.73744 7.131C4.22911 7.89367 4.98327 8.74167 5.99994 9.675ZM5.99994 10.8125C5.93327 10.8125 5.86661 10.8 5.79994 10.775C5.73327 10.75 5.67494 10.7167 5.62494 10.675C4.40827 9.6 3.49994 8.60217 2.89994 7.6815C2.29994 6.7605 1.99994 5.9 1.99994 5.1C1.99994 3.85 2.40211 2.85417 3.20644 2.1125C4.01044 1.37083 4.94161 1 5.99994 1C7.05827 1 7.98944 1.37083 8.79344 2.1125C9.59777 2.85417 9.99994 3.85 9.99994 5.1C9.99994 5.9 9.69994 6.7605 9.09994 7.6815C8.49994 8.60217 7.59161 9.6 6.37494 10.675C6.32494 10.7167 6.26661 10.75 6.19994 10.775C6.13327 10.8 6.06661 10.8125 5.99994 10.8125Z" fill="#0DA678"/>
</g>
</svg>
