<svg width="23" height="20" viewBox="0 0 23 20" fill="none" xmlns="http://www.w3.org/2000/svg">
<g clip-path="url(#clip0_898_8110)">
<path d="M1.28571 15.7141C1.28571 16.5031 1.98809 17.1426 2.85451 17.1426H20.1455C21.0118 17.1426 21.7143 16.5031 21.7143 15.7141V12.8083C20.3561 12.4731 19.357 11.3427 19.357 9.99979C19.357 8.65689 20.3561 7.52648 21.7143 7.19126V4.28551C21.7143 3.49653 21.0118 2.85693 20.1455 2.85693H2.85451C1.98809 2.85693 1.28571 3.49652 1.28571 4.28551V7.18498C2.65709 7.51216 3.66887 8.64838 3.66887 9.99979C3.66887 11.3512 2.65709 12.4874 1.28571 12.8146V15.7141Z" stroke="white" stroke-linecap="round" stroke-linejoin="round"/>
<path d="M7.60364 13.5711L15.4608 6.42822" stroke="white" stroke-linecap="round" stroke-linejoin="round"/>
<path d="M8.38935 7.85679C8.82329 7.85679 9.17507 7.53699 9.17507 7.14251C9.17507 6.74802 8.82329 6.42822 8.38935 6.42822C7.95542 6.42822 7.60364 6.74802 7.60364 7.14251C7.60364 7.53699 7.95542 7.85679 8.38935 7.85679Z" stroke="white" stroke-linecap="round" stroke-linejoin="round"/>
<path d="M14.6751 13.5711C15.109 13.5711 15.4608 13.2513 15.4608 12.8569C15.4608 12.4624 15.109 12.1426 14.6751 12.1426C14.2411 12.1426 13.8893 12.4624 13.8893 12.8569C13.8893 13.2513 14.2411 13.5711 14.6751 13.5711Z" stroke="white" stroke-linecap="round" stroke-linejoin="round"/>
</g>
<defs>
<clipPath id="clip0_898_8110">
<rect width="22" height="20" fill="white" transform="translate(0.5)"/>
</clipPath>
</defs>
</svg>
