<svg width="22" height="22" viewBox="0 0 22 22" fill="none" xmlns="http://www.w3.org/2000/svg">
<path d="M7.34194 12.0769C7.34194 11.6308 6.96399 11.2692 6.49776 11.2692C6.03153 11.2692 5.65358 11.6308 5.65358 12.0769V16.3846C5.65358 16.8307 6.03153 17.1923 6.49776 17.1923C6.96399 17.1923 7.34194 16.8307 7.34194 16.3846V12.0769Z" fill="white"/>
<path d="M15.5023 11.2692C15.9686 11.2692 16.3465 11.6308 16.3465 12.0769V16.3846C16.3465 16.8307 15.9686 17.1923 15.5023 17.1923C15.0361 17.1923 14.6582 16.8307 14.6582 16.3846V12.0769C14.6582 11.6308 15.0361 11.2692 15.5023 11.2692Z" fill="white"/>
<path d="M11.8442 12.0769C11.8442 11.6308 11.4663 11.2692 11 11.2692C10.5338 11.2692 10.1559 11.6308 10.1559 12.0769V16.3846C10.1559 16.8307 10.5338 17.1923 11 17.1923C11.4663 17.1923 11.8442 16.8307 11.8442 16.3846V12.0769Z" fill="white"/>
<path fill-rule="evenodd" clip-rule="evenodd" d="M16.9361 1.81705C16.4008 1.6169 15.8012 1.5831 15.0318 1.57775C14.7158 0.940589 14.0373 0.5 13.2512 0.5H8.7489C7.9628 0.5 7.28425 0.940589 6.9683 1.57775C6.19892 1.5831 5.59928 1.6169 5.06402 1.81705C4.42448 2.0562 3.86821 2.46274 3.45882 2.99017C3.04581 3.52226 2.85194 4.20427 2.58509 5.14297L1.87837 7.62305C1.44221 7.83674 1.06055 8.12452 0.742165 8.51468C0.0420667 9.3726 -0.0819187 10.3944 0.0426257 11.5666C0.163478 12.7039 0.537725 14.1361 1.00621 15.929L1.03592 16.0427C1.33215 17.1765 1.57266 18.097 1.85871 18.8154C2.15696 19.5644 2.5356 20.1783 3.15987 20.6447C3.78413 21.111 4.49846 21.3136 5.33027 21.4088C6.1281 21.5 7.11982 21.5 8.34127 21.5H13.6587C14.8802 21.5 15.8719 21.5 16.6697 21.4088C17.5015 21.3136 18.2159 21.111 18.8401 20.6447C19.4644 20.1783 19.843 19.5644 20.1413 18.8154C20.4273 18.097 20.6679 17.1765 20.9641 16.0427L20.9938 15.929C21.4623 14.1362 21.8365 12.7039 21.9574 11.5666C22.0819 10.3944 21.9579 9.3726 21.2578 8.51468C20.9395 8.12456 20.5579 7.83679 20.1217 7.6231L19.415 5.14297C19.1482 4.20427 18.9543 3.52226 18.5413 2.99017C18.1319 2.46274 17.5756 2.0562 16.9361 1.81705ZM5.67861 3.32161C5.92601 3.2291 6.22494 3.20187 6.96988 3.19467C7.28652 3.83011 7.96411 4.26923 8.7489 4.26923H13.2512C14.036 4.26923 14.7136 3.83011 15.0302 3.19467C15.7752 3.20187 16.0741 3.2291 16.3215 3.32161C16.6658 3.45038 16.9654 3.66929 17.1858 3.95329C17.384 4.20867 17.5004 4.56547 17.8278 5.7144L18.2258 7.1109C17.0576 6.9615 15.5496 6.96151 13.6759 6.96154H8.32407C6.45046 6.96151 4.94243 6.9615 3.77433 7.11089L4.17231 5.7144C4.49973 4.56547 4.61605 4.20867 4.81427 3.95329C5.03471 3.66929 5.33425 3.45038 5.67861 3.32161ZM8.7489 2.11538C8.59349 2.11538 8.46751 2.23592 8.46751 2.38462C8.46751 2.53331 8.59349 2.65385 8.7489 2.65385H13.2512C13.4066 2.65385 13.5326 2.53331 13.5326 2.38462C13.5326 2.23592 13.4066 2.11538 13.2512 2.11538H8.7489ZM2.07294 9.50881C2.38679 9.12421 2.88314 8.86587 3.90872 8.72392C4.95622 8.57893 6.3765 8.57692 8.39392 8.57692H13.6061C15.6235 8.57692 17.0438 8.57893 18.0913 8.72392C19.1169 8.86587 19.6132 9.12421 19.9271 9.50881C20.2409 9.89341 20.3825 10.4168 20.2777 11.4032C20.1706 12.4106 19.8282 13.7294 19.3389 15.602C19.0268 16.7964 18.8095 17.6227 18.5635 18.2403C18.3257 18.8377 18.0928 19.1535 17.8011 19.3714C17.5094 19.5893 17.1326 19.7289 16.4693 19.8048C15.7833 19.8833 14.8928 19.8846 13.6061 19.8846H8.39392C7.10717 19.8846 6.21665 19.8833 5.53073 19.8048C4.86736 19.7289 4.49061 19.5893 4.1989 19.3714C3.90719 19.1535 3.6743 18.8377 3.43646 18.2403C3.19052 17.6227 2.97318 16.7964 2.6611 15.602C2.1718 13.7294 1.82937 12.4106 1.72233 11.4032C1.61752 10.4168 1.75909 9.89341 2.07294 9.50881Z" fill="white"/>
</svg>
