<svg width="12" height="12" viewBox="0 0 12 12" fill="none" xmlns="http://www.w3.org/2000/svg">
<mask id="mask0_958_2297" style="mask-type:alpha" maskUnits="userSpaceOnUse" x="0" y="0" width="12" height="12">
<rect width="12" height="12" fill="#D9D9D9"/>
</mask>
<g mask="url(#mask0_958_2297)">
<path d="M6 11.4998C5.06667 11.4998 4.20833 11.2873 3.425 10.8623C2.64167 10.4373 2 9.86644 1.5 9.14978V9.99978C1.5 10.1414 1.45217 10.2601 1.3565 10.3558C1.2605 10.4518 1.14167 10.4998 1 10.4998C0.858333 10.4998 0.739667 10.4518 0.644 10.3558C0.548 10.2601 0.5 10.1414 0.5 9.99978V7.99978C0.5 7.85811 0.548 7.73928 0.644 7.64328C0.739667 7.54761 0.858333 7.49978 1 7.49978H3C3.14167 7.49978 3.2605 7.54761 3.3565 7.64328C3.45217 7.73928 3.5 7.85811 3.5 7.99978C3.5 8.14144 3.45217 8.26011 3.3565 8.35578C3.2605 8.45178 3.14167 8.49978 3 8.49978H2.275C2.675 9.09978 3.2 9.58311 3.85 9.94978C4.5 10.3164 5.21667 10.4998 6 10.4998C6.91667 10.4998 7.73967 10.2561 8.469 9.76878C9.198 9.28111 9.74167 8.64561 10.1 7.86228C10.15 7.75394 10.225 7.67478 10.325 7.62478C10.425 7.57478 10.5333 7.56228 10.65 7.58728C10.8 7.62894 10.9125 7.72061 10.9875 7.86228C11.0625 8.00394 11.0667 8.14561 11 8.28728C10.5667 9.24561 9.90417 10.0206 9.0125 10.6123C8.12083 11.2039 7.11667 11.4998 6 11.4998ZM0.9875 5.48728C0.8625 5.45394 0.7605 5.38311 0.6815 5.27478C0.602167 5.16644 0.579167 5.04144 0.6125 4.89978C0.6875 4.54978 0.793833 4.21428 0.9315 3.89328C1.06883 3.57261 1.23333 3.26644 1.425 2.97478C1.50833 2.85811 1.61883 2.78511 1.7565 2.75578C1.89383 2.72678 2.02083 2.75811 2.1375 2.84978C2.2375 2.92478 2.3 3.02678 2.325 3.15578C2.35 3.28511 2.32917 3.40394 2.2625 3.51228C2.10417 3.75394 1.96667 4.01011 1.85 4.28078C1.73333 4.55178 1.64583 4.83311 1.5875 5.12478C1.5625 5.26644 1.4895 5.37061 1.3685 5.43728C1.24783 5.50394 1.12083 5.52061 0.9875 5.48728ZM2.875 2.17478C2.775 2.07478 2.73333 1.94561 2.75 1.78728C2.76667 1.62894 2.84167 1.50394 2.975 1.41228C3.26667 1.22061 3.57283 1.05594 3.8935 0.918278C4.2145 0.780945 4.55 0.678945 4.9 0.612278C5.04167 0.587278 5.16867 0.612278 5.281 0.687278C5.39367 0.762278 5.4625 0.862278 5.4875 0.987278C5.5125 1.12894 5.49167 1.25811 5.425 1.37478C5.35833 1.49144 5.25417 1.56228 5.1125 1.58728C4.82083 1.65394 4.54167 1.73944 4.275 1.84378C4.00833 1.94778 3.75417 2.08311 3.5125 2.24978C3.4125 2.31644 3.30417 2.34344 3.1875 2.33078C3.07083 2.31844 2.96667 2.26644 2.875 2.17478ZM5.225 6.78728L4 6.22478C3.9 6.18311 3.85 6.10811 3.85 5.99978C3.85 5.89144 3.9 5.81644 4 5.77478L5.225 5.22478L5.775 3.99978C5.81667 3.89978 5.89167 3.84978 6 3.84978C6.10833 3.84978 6.18333 3.89978 6.225 3.99978L6.775 5.22478L8 5.77478C8.1 5.81644 8.15 5.89144 8.15 5.99978C8.15 6.10811 8.1 6.18311 8 6.22478L6.775 6.77478L6.225 7.99978C6.18333 8.09978 6.10833 8.14978 6 8.14978C5.89167 8.14978 5.81667 8.09978 5.775 7.99978L5.225 6.78728ZM9.1375 2.14978C9.05417 2.24978 8.95217 2.31011 8.8315 2.33078C8.7105 2.35178 8.59583 2.32894 8.4875 2.26228C8.24583 2.10394 7.98967 1.96644 7.719 1.84978C7.448 1.73311 7.16667 1.64561 6.875 1.58728C6.73333 1.56228 6.62717 1.48511 6.5565 1.35578C6.4855 1.22678 6.47083 1.09561 6.5125 0.962278C6.54583 0.837278 6.61883 0.741445 6.7315 0.674778C6.84383 0.608111 6.96667 0.587278 7.1 0.612278C7.45 0.678945 7.78533 0.780945 8.106 0.918278C8.427 1.05594 8.73333 1.22061 9.025 1.41228C9.15 1.49561 9.223 1.61011 9.244 1.75578C9.26467 1.90178 9.22917 2.03311 9.1375 2.14978ZM11.0125 5.48728C10.8792 5.52061 10.7522 5.50394 10.6315 5.43728C10.5105 5.37061 10.4375 5.26644 10.4125 5.12478C10.3542 4.83311 10.2687 4.55178 10.156 4.28078C10.0437 4.01011 9.90417 3.75394 9.7375 3.51228C9.6625 3.39561 9.6395 3.27261 9.6685 3.14328C9.69783 3.01428 9.76667 2.91228 9.875 2.83728C9.99167 2.75394 10.1167 2.72678 10.25 2.75578C10.3833 2.78511 10.4917 2.85811 10.575 2.97478C10.7667 3.26644 10.9313 3.57261 11.069 3.89328C11.2063 4.21428 11.3125 4.54978 11.3875 4.89978C11.4208 5.04144 11.398 5.16644 11.319 5.27478C11.2397 5.38311 11.1375 5.45394 11.0125 5.48728Z" fill="#FFAA04"/>
</g>
</svg>
